<?xml version="1.0" encoding="utf-8"?>
<svg version="1.1" xmlns:xlink="http://www.w3.org/1999/xlink" width="18px" height="18px" xmlns="http://www.w3.org/2000/svg">
  <g transform="matrix(1 0 0 1 -215 -2383 )">
    <path d="M 224 2383  C 229.04 2383  233 2386.96  233 2392  C 233 2397.04  229.04 2401  224 2401  C 218.96 2401  215 2397.04  215 2392  C 215 2386.96  218.96 2383  224 2383  Z " fill-rule="nonzero" fill="#ffffff" stroke="none" />
    <path d="M 224 2383.5  C 228.76 2383.5  232.5 2387.24  232.5 2392  C 232.5 2396.76  228.76 2400.5  224 2400.5  C 219.24 2400.5  215.5 2396.76  215.5 2392  C 215.5 2387.24  219.24 2383.5  224 2383.5  Z " stroke-width="1" stroke="#797979" fill="none" />
  </g>
</svg>