<?xml version="1.0" encoding="utf-8"?>
<svg version="1.1" xmlns:xlink="http://www.w3.org/1999/xlink" width="19px" height="23px" xmlns="http://www.w3.org/2000/svg">
  <g transform="matrix(1 0 0 1 -26 -154 )">
    <path d="M 5.27777777777778 7.31818181818182  L 5.27777777777778 10.4545454545455  L 13.7222222222222 10.4545454545455  L 13.7222222222222 7.31818181818182  C 13.7222222222222 6.16382575757576  13.3098958333333 5.17826704545455  12.4852430555556 4.36150568181818  C 11.6605902777778 3.54474431818182  10.6655092592593 3.13636363636364  9.5 3.13636363636364  C 8.33449074074074 3.13636363636364  7.33940972222222 3.54474431818182  6.51475694444444 4.36150568181818  C 5.69010416666667 5.17826704545455  5.27777777777778 6.16382575757576  5.27777777777778 7.31818181818182  Z M 18.5381944444444 10.9119318181818  C 18.8460648148148 11.2168560606061  19 11.5871212121212  19 12.0227272727273  L 19 21.4318181818182  C 19 21.8674242424242  18.8460648148148 22.2376893939394  18.5381944444444 22.5426136363636  C 18.2303240740741 22.8475378787879  17.8564814814815 23  17.4166666666667 23  L 1.58333333333333 23  C 1.14351851851852 23  0.769675925925926 22.8475378787879  0.461805555555556 22.5426136363636  C 0.153935185185185 22.2376893939394  0 21.8674242424242  0 21.4318181818182  L 0 12.0227272727273  C 0 11.5871212121212  0.153935185185185 11.2168560606061  0.461805555555556 10.9119318181818  C 0.769675925925926 10.6070075757576  1.14351851851852 10.4545454545455  1.58333333333333 10.4545454545455  L 2.11111111111111 10.4545454545455  L 2.11111111111111 7.31818181818182  C 2.11111111111111 5.31439393939394  2.83680555555556 3.59375  4.28819444444444 2.15625  C 5.73958333333333 0.71875  7.47685185185185 0  9.5 0  C 11.5231481481481 0  13.2604166666667 0.71875  14.7118055555556 2.15625  C 16.1631944444444 3.59375  16.8888888888889 5.31439393939394  16.8888888888889 7.31818181818182  L 16.8888888888889 10.4545454545455  L 17.4166666666667 10.4545454545455  C 17.8564814814815 10.4545454545455  18.2303240740741 10.6070075757576  18.5381944444444 10.9119318181818  Z " fill-rule="nonzero" fill="#6d6d6d" stroke="none" transform="matrix(1 0 0 1 26 154 )" />
  </g>
</svg>