<?xml version="1.0" encoding="utf-8"?>
<svg version="1.1" xmlns:xlink="http://www.w3.org/1999/xlink" width="25px" height="17px" xmlns="http://www.w3.org/2000/svg">
  <g transform="matrix(1 0 0 1 -115 -844 )">
    <path d="M 24.5361328125 0.56076388888889  C 24.8453776041667 0.93460648148148  25 1.37731481481481  25 1.88888888888889  C 25 2.40046296296296  24.8453776041667 2.84317129629629  24.5361328125 3.21701388888889  L 13.5986328125 16.4392361111111  C 13.2893880208333 16.8130787037037  12.9231770833333 17  12.5 17  C 12.0768229166667 17  11.7106119791667 16.8130787037037  11.4013671875 16.4392361111111  L 0.4638671875 3.21701388888889  C 0.154622395833333 2.84317129629629  0 2.40046296296296  0 1.88888888888889  C 0 1.37731481481481  0.154622395833333 0.93460648148148  0.4638671875 0.56076388888889  C 0.773111979166667 0.186921296296294  1.13932291666667 0  1.5625 0  L 23.4375 0  C 23.8606770833333 0  24.2268880208333 0.186921296296294  24.5361328125 0.56076388888889  Z " fill-rule="nonzero" fill="#919191" stroke="none" transform="matrix(1 0 0 1 115 844 )" />
  </g>
</svg>